<svg height="1000" width="1000.0" xmlns="http://www.w3.org/2000/svg"><path d="m388 872c-70 71-186 74-258 4-72-71-75-187-3-258 71-73 187-74 259-4 72 70 73 185 2 258z m502-404l0 0 21 77-85 35-41-68 3-1c-30 5-61 7-93 0l-40 68-85-35 20-77 1 1c-25-18-47-39-64-64l0 0-77 20-35-85 67-40 2 2c-5-30-5-61 0-92l-68-40 35-85 77 19 0 4c11-15 22-28 37-41l-443 0c-31 0-56 26-56 57l0 370 52 38-1 1c26-17 53-29 83-35l0 0 11-77 90-1 12 76-3 0c29 6 58 17 84 33l61-47 64 63-46 62-1-1c17 26 29 53 35 82l0 0 77 10 2 90-77 13 0-3c-7 29-17 58-33 84l42 53 360 0c31 0 56-24 56-57l0-445c-14 13-28 26-44 36z m23-142c-39 95-149 139-243 100-95-39-139-148-100-242 39-95 149-139 243-100 95 39 140 147 100 242z" /></svg>