<svg height="1000" width="1000.0" xmlns="http://www.w3.org/2000/svg"><path d="m496 48c-219-2-422 178-445 396-24 185 78 380 247 461 160 80 368 56 501-66 134-118 190-318 128-486-57-165-214-291-388-303-15-1-29-2-43-2z m8 49c201-3 386 169 398 370 16 178-100 360-271 415-164 56-362-4-460-148-103-144-99-357 19-491 76-92 194-149 314-146z m-12 44c-185 0-352 166-352 352-4 168 124 331 291 360 153 30 322-49 390-191 71-141 39-329-84-431-67-59-156-92-245-90z m14 48c165-1 312 150 305 315 0 150-121 290-272 305-143 19-295-73-336-213-43-134 14-296 139-364 50-29 107-44 164-43z" /></svg>