<svg height="1000" width="1000.0" xmlns="http://www.w3.org/2000/svg"><path d="m500 288c-64 115-128 230-192 345 128 0 256 0 384 0-64-115-128-230-192-345z m0 51c50 90 100 180 151 270-101 0-201 0-302 0 51-90 101-180 151-270z m4-289c-45 7-119-8-139 39 18 48 78 2 116 10 40-3 80 6 119 8 49-46-38-58-72-56-8-1-16-1-24-1z m250 79c-62 19 12 63 34 87 30 33 55 70 76 109 42 29 52-35 23-57-33-54-74-105-127-138l-6-1 0 0z m-521 11c-51 21-82 73-113 115-22 23-63 104 0 91 32-41 53-93 92-130 19-20 77-57 21-76z m695 313c-47 13-14 76-28 111-7 43-22 86-43 125-6 47 57 33 57-6 31-66 44-141 36-213-3-10-13-16-22-17z m-853 19c-48 11-18 76-18 110 11 46 23 94 51 133 67 9 16-67 8-99-12-40-19-82-19-124-2-11-12-19-22-20z m694 334c-50 24-94 64-149 78-33 0-87 36-38 60 75-13 146-49 204-98 14-14 2-40-17-40z m-542 1c-56 22 12 68 41 83 45 25 95 46 147 53 50-23-6-59-38-59-50-15-97-39-136-73l-6-3-8-1 0 0z" /></svg>