<svg height="1000" width="1000.0" xmlns="http://www.w3.org/2000/svg"><path d="m496 48c-176 0-345 113-412 276-70 161-34 362 89 487 119 128 314 175 477 115 169-58 294-224 301-403 12-176-92-351-250-428-62-31-132-47-201-47-1 0-3 0-4 0z m12 49c173 1 335 126 380 293 47 159-17 344-155 439-143 105-354 97-489-18-136-108-185-309-115-468 60-147 212-248 371-246 3 0 6 0 8 0z m-78 208l0 125-125 0 0 140 125 0 0 125 140 0 0-125 125 0 0-140-125 0 0-125-140 0z m23 23l94 0 0 125 125 0 0 94-125 0 0 125-94 0 0-126-125 0 0-93 125 0 0-125z" /></svg>