<svg height="1000" width="1000.0" xmlns="http://www.w3.org/2000/svg"><path d="m500 300c-47 131-77 268-124 400 43-43 81-91 124-135 42 45 83 90 125 135-43-133-83-267-125-400z m1 83c23 73 45 146 68 219-22-24-45-49-68-74-19 17-69 82-66 68 24-70 41-143 66-213z m3-333c-43 1-87 4-127 17-24 13-8 53 18 45 64-16 132-17 196-4 27 2 35-39 9-47-31-8-64-11-96-11z m250 79c-26-3-35 36-12 47 53 38 91 93 122 149 18 21 53-4 40-27-34-65-80-124-139-166-3-2-7-3-11-3z m-521 11c-21 3-34 22-49 35-36 35-64 77-88 121-9 15-20 37-1 49 17 13 36-3 41-21 22-41 49-81 82-115 13-15 37-23 38-45 0-12-10-23-23-24z m695 313c-22-1-29 24-25 41 4 68-13 136-46 195-9 25 28 44 43 22 41-72 59-158 50-241-3-10-13-16-22-17z m-853 19c-22-1-30 22-26 40 3 68 21 136 52 196 15 22 52 3 43-22-30-60-46-127-47-194-2-11-12-19-22-20z m694 334c-22 3-36 24-55 33-42 28-91 46-140 59-25 12-9 52 17 45 72-16 139-49 195-97 14-15 2-40-17-40z m-542 1c-24 0-31 35-11 46 47 40 104 67 163 83 17 5 42 16 53-5 10-18-6-37-24-38-56-14-111-36-156-73-7-6-14-14-25-13z" /></svg>