<svg height="1000" width="1000.0" xmlns="http://www.w3.org/2000/svg"><path d="m430 305l0 125-125 0 0 140 125 0 0 125 140 0 0-125 125 0 0-140-125 0 0-125z m23 23l94 0 0 125 125 0 0 94-125 0 0 125-94 0 0-126-125 0 0-93 125 0z m51-278l-7 0 0 0 0 0-6 0 0 0 0 0-7 0 0 0 0 0-6 1 0 0-1 0-6 0 0 0 0 0-6 0-1 0 0 0-6 1 0 0 0 0-6 1-1 0 0 0-6 0 0 0 0 0-6 1-1 0 0 0-6 1 0 0 0 0-6 1-1 0 0 0-6 1 0 0 0 0-6 1-1 0 0 0-6 1 0 1 0 0-6 1 0 0-1 0-6 1 0 0 0 0-6 2 0 0 0 0-4 1-4 1-4 2-3 3-3 4-2 4-2 4 0 5 0 4 1 5 2 4 3 4 3 3 4 2 5 2 4 1 5 0 3-1 3-1 6-1 6-1 6-2 5-1 6-1 6-1 6-1 6 0 6-1 5-1 6 0 6-1 6 0 6-1 6 0 6 0 6 0 6 0 6 0 5 0 6 0 6 1 6 0 6 1 6 0 6 1 5 0 6 1 6 1 6 1 6 1 5 1 2 0 4 1 5 0 4-2 4-2 4-2 3-4 3-3 1-5 1-4 0-5-1-4-1-4-3-4-3-4-3-2-5-2-3-1-2-1 0 0 0 0-6-1 0 0-1 0-6-1 0 0 0 0-6-1 0 0-1 0-6-1 0 0 0 0-6-1 0 0 0 0-7-1 0 0 0 0-6 0 0-1-1 0-6 0 0 0 0 0-6-1 0 0-1 0-6 0 0 0 0 0-6 0-1 0 0 0-6-1 0 0 0 0-6 0-1 0 0 0-6 0 0 0z m246 79l-5 1-4 1-4 3-3 3-3 4-1 4-2 4 0 5 1 4 1 5 2 4 3 3 3 3 2 1 0 0 2 2 0 0 3 1 0 0 2 2 0 0 2 2 2 2 0 0 3 2 0 0 2 1 2 2 0 0 2 2 3 2 0 0 2 2 2 2 0 0 2 2 2 2 1 0 2 2 2 2 2 2 0 0 2 2 0 0 2 2 0 0 2 2 2 2 0 0 2 3 0 0 2 2 2 2 0 0 2 2 2 2 0 0 2 3 0 0 2 2 2 2 2 2 0 0 2 3 2 2 2 2 0 1 1 2 0 0 2 2 0 0 2 3 0 0 1 0 2 4 3 3 2 4 3 3 2 3 3 4 2 3 2 4 0 0 3 3 2 4 2 4 3 3 2 4 2 3 2 4 2 4 2 3 2 4 2 4 1 2 3 4 3 4 3 2 4 2 5 2 4 0 5-1 4-1 4-2 4-3 3-3 2-4 2-4 0-5 0-5-1-4-1-3-2-3 0 0 0 0-2-4 0 0 0-1-2-4 0 0 0 0-2-4 0 0 0 0-2-4-1 0 0 0-2-4 0 0 0 0-2-4 0 0 0 0-3-4 0 0 0 0-2-4 0 0 0 0-3-4 0 0 0 0-2-4 0 0 0 0-3-4 0 0 0 0-2-4 0 0-1 0-2-4 0 0 0 0-3-4 0 0 0 0-3-4 0 0 0 0-2-3 0-1-1 0-2-3 0 0 0 0-3-4 0 0 0 0-3-3-2-3 0 0 0 0-2-3 0 0 0 0-2-2 0 0 0 0-2-3 0 0 0 0-2-3 0 0 0 0-2-2 0 0 0 0-2-3 0 0 0 0-3-3 0 0 0 0-2-2 0 0 0 0-2-3 0 0 0 0-2-2 0 0 0 0-3-3 0 0 0 0-2-2 0 0 0 0-2-3 0 0 0 0-2-2-1 0 0 0-2-3 0 0 0 0-2-2 0 0 0 0-3-3 0 0 0 0-2-2 0 0 0 0-2-2 0 0-1 0-2-3 0 0 0 0-2-2 0 0 0 0-3-2 0 0 0 0-2-2 0 0 0 0-3-3 0 0 0 0-2-2 0 0 0 0-3-2 0 0 0 0-2-2 0 0 0 0-3-2 0 0 0 0-2-2-1 0 0-1-2-1 0-1 0 0-3-2 0 0 0 0-2-2 0 0 0 0-3-2 0 0 0 0-3-2 0 0 0 0-2-2 0 0 0 0-2-1-4-2-4-2-5 0z m-521 12l-5 1-4 2-3 2 0 0 0 0-1 0-2 2 0 0 0 0-3 2 0 0 0 0-2 2 0 0 0 0-3 2 0 0 0 0-2 2 0 0 0 1-3 2 0 0 0 0-2 2 0 0 0 0-3 2 0 0 0 0-2 2 0 0 0 0-3 2 0 1 0 0-2 2 0 0 0 0-2 2 0 0-1 0-2 2 0 0 0 1-2 2 0 0 0 0-3 2 0 0 0 0-2 3 0 0 0 0-2 2 0 0 0 0-2 2-1 0 0 1-2 2 0 0 0 0-2 2 0 0 0 1-2 2 0 0 0 0-2 2-1 0 0 1-2 2 0 0 0 0-2 3 0 0 0 0-2 2 0 0 0 0-2 3 0 0 0 0-2 2 0 0 0 1-2 2-1 0 0 0-2 3 0 0 0 0-2 2 0 0 0 1-2 2 0 0 0 0-2 3 0 0 0 0-2 3 0 0 0 0-2 2 0 1 0 0-2 2 0 0 0 0-2 3 0 0 0 0-2 3 0 0 0 0-1 3 0 0-1 0-1 3 0 0 0 0-2 2-1 2 0 0 0 0-2 3 0 0 0 0-2 2 0 1 0 0-2 2 0 0 0 0-2 3 0 0 0 0-2 3 0 0 0 0-2 3 0 0 0 0-2 3 0 0 0 0-2 3 0 0 0 0-1 3 0 0 0 0-2 2 0 1 0 0-2 2 0 0 0 1-2 2 0 0 0 0-1 3 0 0 0 0-2 3 0 0 0 0-2 3 0 0 0 0-1 3 0 0 0 0-2 3 0 0 0 0-1 3 0 0 0 0-2 3 0 0 0 0-1 3 0 0 0 0-2 3 0 0 0 0-1 3 0 0 0 0-2 3 0 0 0 0 0 1-2 4 0 5 0 4 1 5 2 4 2 4 4 3 3 3 5 1 4 1 5 1 4-1 4-2 4-2 4-3 3-3 1-4 1 0 1-3 1-3 0 0 1-2 0 0 2-3 1-3 0 0 2-2 0 0 1-3 1-2 0-1 2-2 1-3 0 0 2-2 0 0 1-3 2-2 0 0 1-3 2-2 1-3 0 0 2-3 0 0 2-2 0 0 1-2 2-3 2-2 0 0 1-3 2-2 2-3 1-1 0 0 2-3 1-2 0 0 2-3 2-2 0 0 1-3 2-2 0 0 2-3 0 0 2-2 1-3 2-2 0 0 2-2 2-3 2-2 0 0 2-2 1-3 2-2 0 0 2-2 2-2 0 0 2-3 0 0 2-2 0 0 2-2 0 0 2-2 2-2 0 0 2-2 0 0 2-3 0 0 2-2 2-2 0 0 2-2 3-2 0 0 2-2 2-2 0 0 2-2 0 0 2-2 0 0 2-2 0 0 3-1 0 0 2-2 0 0 2-2 0 0 2-2 3-2 0 0 2-2 0 0 0 0 3-3 3-4 2-4 1-4 0-5 0-4-2-5-2-4-3-3-3-3-4-2-4-2-5-1z m694 313l-4 1-5 2-3 2-3 4-3 4-2 4-1 4 0 4 1 4 0 4 0 4 0 5 0 4 0 0 0 1 0 3 0 3 0 0 0 3 0 0 0 3 0 3 0 0 0 3 0 0 0 3 0 3 0 3 0 3 0 3-1 3 0 3 0 0 0 3 0 0 0 3-1 3 0 3 0 3-1 2 0 1 0 3 0 0 0 2-1 3 0 3 0 0-1 3 0 3-1 3 0 0 0 3-1 3-1 3 0 0 0 2-1 3 0 0 0 3-1 3 0 0-1 3-1 3 0 0 0 2 0 0-1 3 0 0-1 3 0 0-1 3 0 0-1 3-1 2 0 0 0 3-1 3 0 0-1 3 0 0-1 2 0 1-1 2 0 0-1 3 0 0-1 3-1 2 0 0-1 3-3 5-2 6-2 5-3 5-2 6-3 5-3 5-1 3-2 4-1 4 0 5 1 4 1 5 3 4 3 3 3 3 4 2 5 1 4 1 5-1 4-1 4-2 4-3 3-3 2-3 1-3 1 0 0 0 3-6 0 0 0 0 2-6 1 0 0 0 2-6 0 0 0 0 3-5 0-1 0 0 3-5 0-1 0 0 2-6 0 0 1 0 2-6 0 0 0 0 1-3 0 0 0 0 1-3 0 0 0 0 1-3 0 0 1 0 1-3 0 0 0 0 1-3 0 0 0 0 1-3 0 0 0 0 1-3 0 0 0-1 1-3 0 0 0 0 1-3 0 0 0 0 1-3 0 0 0 0 1-3 0 0 0 0 1-3 0 0 0 0 1-3 0 0 0-1 1-3 0 0 0 0 1-3 0 0 0 0 0-3 0 0 0 0 1-3 0 0 0 0 1-3 0-1 0 0 1-3 0 0 0 0 0-3 0 0 1 0 0-3 0 0 0 0 1-3 0-1 0 0 1-3 0 0 0 0 0-3 0 0 0 0 1-3 0 0 0 0 0-4 0 0 0 0 1-3 0 0 0 0 0-3 0 0 0 0 1-4 0 0 0 0 0-3 0 0 0 0 1-3 0 0 0 0 0-4 0 0 0 0 1-3 0 0 0 0 0-3 0 0 0 0 0-4 0 0 0 0 1-3 0 0 0 0 0-3 0 0 0-1 0-3 0 0 0 0 0-3 0 0 0 0 0-4 0 0 0 0 1-3 0 0 0 0 0-3 0 0 0-1 0-3 0 0 0 0 0-3 0 0 0 0 0-4 0 0 0 0 0-3 0 0 0 0 0-4 0 0 0 0 0-3 0 0 0 0 0-3 0-1 0 0 0-3 0-4 0 0 0 0 0-4 0 0 0-1 0-4 0 0 0 0-1-5 0 0 0 0 0-4 0-5-2-4-2-4-3-4-4-2-4-3-4-1-4-1z m-853 18l-4 1-5 2-3 3-4 3-2 4-2 4-1 4 0 4 0 3 0 0 0 0 0 7 0 0 0 0 0 6 0 0 0 0 0 7 0 0 0 0 1 6 0 0 0 1 0 6 0 0 0 0 1 6 0 0 0 1 1 6 0 0 0 0 1 6 0 0 0 1 0 6 0 0 0 0 1 6 0 0 0 1 1 6 1 0 0 0 1 6 0 0 0 1 1 6 0 0 0 0 1 6 0 0 0 0 2 6 0 1 0 0 1 6 0 0 0 0 2 6 0 0 0 1 2 6 0 0 0 0 1 6 0 0 0 0 2 6 0 0 0 0 2 6 0 1 0 0 2 6 0 0 0 0 2 6 0 0 0 0 2 6 1 0 0 0 2 6 0 0 0 0 2 6 0 0 0 1 3 5 0 1 0 0 2 5 0 1 0 0 3 5 0 1 0 0 2 5 0 1 1 0 2 5 0 1 0 0 3 5 0 0 0 1 1 1 2 4 4 4 3 2 4 2 5 1 4 1 5-1 4-1 4-2 4-3 3-3 2-4 2-5 0-4 0-5-1-4-1-4-1-1-3-5-2-6-3-5-2-6-2-5-2-5-3-6-2-6-2-5-1-6-2-5-2-6-2-6-1-5-2-6-1-6-2-5-1-6-1-6-1-6-1-6-1-5-1-6-1-6-1-6 0-6-1-5 0-6-1-6 0-6 0-6-1-6 0-3 0-4-1-5-3-4-2-3-4-3-4-3-4-1-4-1z m694 334l-4 1-4 2-4 3 0 0-5 3-4 4-5 4-5 3-5 3-4 4-5 3-5 3-5 3-5 4-5 3-6 3-5 2-5 3-5 3-5 3-6 2-5 3-5 2-6 2-5 3-6 2-5 2-6 2-5 2-6 2-5 2-6 1-5 2-6 2-6 1-5 1-5 1-4 2-4 2-4 3-2 3-3 4-1 5-1 4 1 5 1 4 2 4 2 4 3 3 4 3 4 1 5 1 4 1 4-1 5-1 0 0 0 0 6-2 0 0 0 0 6-1 1 0 0 0 6-2 0 0 0 0 6-2 0 0 0 0 6-2 0 0 1 0 5-2 1 0 0 0 6-2 0 0 0 0 6-2 0 0 0 0 6-2 0 0 0 0 6-3 0 0 0 0 6-2 0 0 1 0 5-3 0 0 1 0 5-2 0 0 1 0 5-3 0 0 1 0 5-3 0 0 1 0 5-3 0 0 0 0 6-3 0 0 0 0 6-3 0 0 0 0 6-3 0 0 0 0 5-3 0 0 1 0 5-3 0 0 0 0 6-3 0-1 0 0 5-3 0 0 1 0 5-3 0 0 0-1 5-3 0 0 1 0 5-4 0 0 0 0 5-3 0 0 0 0 6-4 0 0 0 0 5-4 0 0 0 0 5-4 0 0 0 0 5-4 0 0 1 0 4-4 1 0 0 0 0-1 3-3 3-4 2-4 1-4 0-5 0-4-2-4-2-4-3-4-4-3-4-2-4-1-4-1z m-541 2l-4 1-4 3-4 2-3 4-2 4-1 4-1 5 0 4 1 5 2 4 3 4 3 2 1 1 0 1 0 0 5 4 0 0 0 0 5 4 0 0 0 0 3 2 0 0 0 0 2 2 1 0 0 0 2 2 0 0 0 0 3 2 0 0 0 0 2 2 1 0 0 0 2 2 0 0 0 0 3 2 0 0 0 0 3 1 0 1 0 0 2 1 0 0 0 0 3 2 0 0 0 0 3 2 0 0 0 0 3 2 0 0 0 0 2 2 0 0 1 0 2 1 0 0 0 0 3 2 0 0 0 0 3 2 0 0 0 0 3 1 0 0 0 1 3 1 0 0 0 0 3 2 0 0 0 0 2 1 1 0 0 0 2 2 1 0 0 0 2 2 0 0 1 0 2 1 0 0 1 0 2 2 0 0 0 0 3 1 0 0 0 0 3 2 0 0 1 0 2 1 0 0 1 0 2 1 0 1 1 0 2 1 1 0 0 0 3 1 0 0 0 0 3 2 0 0 0 0 3 1 0 0 0 0 3 1 0 0 0 0 3 2 0 0 0 0 3 1 0 0 0 0 3 1 0 0 0 0 3 1 1 0 0 0 3 1 0 0 0 0 3 2 0 0 0 0 3 1 0 0 0 0 3 1 0 0 1 0 3 1 0 0 0 0 3 1 0 0 0 0 3 1 0 0 0 0 3 1 0 0 1 0 3 1 0 0 0 0 3 1 0 0 0 0 3 1 2 0 0 0 0 0 3 1 0 0 0 1 3 1 1 0 0 0 3 1 0 0 0 0 3 1 0 0 0 0 3 1 0 0 0 0 4 0 0 1 0 0 3 0 0 0 0 0 3 1 0 0 0 0 3 1 1 0 0 0 3 1 0 0 0 0 3 1 0 0 0 0 0 0 5 0 4 0 5-1 4-2 4-2 3-4 2-3 2-5 1-4 0-5 0-4-2-4-2-4-3-4-4-2-4-3-3-1 0 0-1 0-3 0-2-1 0 0-3-1 0 0-3-1 0 0-3 0 0 0-3-1-3-1-3-1 0 0-3-1-2-1-3-1-3-1-1 0-1 0-3-1-3-1-3-1 0 0-2-1-3-1-3-1-3 0-3-1 0 0-3-1-3-1-2-1 0 0-3-2-3-1 0 0-3-1 0 0-2-1-3-1 0 0-3-1-3-1-2-2-3-1 0 0-3-1-2-1-3-2-3-1-2-1 0 0-3-2-2-1 0 0-3-1 0 0-3-2 0 0-2-1-2-2-1 0-2-1 0 0-3-2-2-1 0 0-3-2-2-1 0 0-3-2 0 0-2-2 0 0-2-1-3-2 0 0-2-2-2-1-1 0-2-2 0 0-2-2-3-1 0 0-2-2 0 0-2-2 0 0-3-2-4-3-5-4-1-1-4-3-4-1-4-2-5 0z" /></svg>