<svg height="1000" width="1000.0" xmlns="http://www.w3.org/2000/svg"><path d="m500 48c-178-2-349 112-416 276-70 161-34 362 89 487 119 128 314 175 477 115 169-58 294-224 301-403 12-176-92-351-250-428-62-31-132-47-201-47z m0 49c175-3 342 123 388 293 47 159-17 344-155 439-143 105-354 97-489-18-136-109-185-309-115-468 60-147 212-248 371-246z m173 210c-34 70-68 139-102 209-43-56-86-111-128-166-39 114-77 228-116 342 43-55 87-111 130-167 45 51 89 103 134 154 27-124 55-248 82-372z m-219 110c41 52 81 103 122 154 10-22 20-45 30-67-10 39-19 78-29 116-41-48-83-97-124-145-17 26-34 52-50 77 17-45 34-90 51-135z" /></svg>