<svg height="1000" width="1000.0" xmlns="http://www.w3.org/2000/svg"><path d="m492 206l-5 1c-84 0-140 60-140 139 0 39 29 74 58 100-16 5-54 19-93 41-23 12-45 27-62 44-16 17-28 37-29 58l0 0 0 204 98 0c1 1 2 1 3 0l457 0 0-204c0-19-12-37-29-53-18-17-41-32-64-45-42-24-83-40-99-46 28-26 48-60 48-99 0-79-58-140-143-140z m-38 82c13 0 27 3 40 10 59 31 121 43 132 34 1 4 1 9 1 14 0 38-21 73-50 97l-6 5 7 2c6 2 35 13 69 29-2 70-70 127-154 127-84 0-151-55-153-125 35-17 67-28 74-30l7-2-6-5c-29-25-60-60-60-98 0-5 0-10 1-15 10-8 52-42 98-43z m198 194c10 5 20 10 30 16 23 13 46 28 62 43 17 16 27 33 27 48l0 196-90 0 0-144-8 0 0 144-349 0 0-144c0-6-8-6-8 0l0 144-87 0 0-196c1-18 11-36 27-52 16-16 38-31 60-43 6-4 12-7 19-10 3 72 73 127 158 127 86 0 156-57 159-129z" /></svg>