<svg height="1000" width="1000.0" xmlns="http://www.w3.org/2000/svg"><path d="m491 48c-219 0-420 183-440 400-22 186 82 380 253 459 158 77 361 53 492-67 134-115 192-312 133-480-55-172-220-303-401-311-13-1-25-1-37-1z m9 142c161-5 308 137 310 298 7 147-103 292-250 317-142 28-300-54-350-192-53-136 2-309 132-380 47-28 103-43 158-43z m-112 110c-29 30-58 59-87 88 37 38 75 75 112 113-37 36-74 73-110 110 28 29 57 58 86 86 37-37 73-73 110-110 38 37 75 75 113 112 29-29 58-58 88-87-38-38-76-75-113-113 37-37 74-73 110-110-28-29-57-58-86-86-37 36-73 73-110 110-38-37-75-75-113-113z" /></svg>