<svg height="1000" width="1000.0" xmlns="http://www.w3.org/2000/svg"><path d="m499 48c-220-4-425 177-448 396-24 185 78 380 247 461 160 80 368 56 501-66 134-118 190-318 128-486-57-167-217-293-393-303-12-1-23-2-35-2z m-5 49c202-7 391 161 407 362 19 178-92 361-262 420-166 61-368 2-468-145-103-144-99-356 18-490 74-90 188-146 305-147z m8 44c-186-6-358 158-361 344-9 169 116 334 283 367 155 33 328-46 397-190 71-140 39-327-83-430-64-57-150-91-236-91z m-2 48c164-4 314 144 311 308 3 152-119 297-272 312-143 19-295-73-336-213-43-134 14-295 138-364 48-28 103-43 159-43z m50 116c0 33 0 67 0 100-75 0-150 0-226 0 0 63 0 127 0 190 76 0 151 0 226 0 0 33 0 67 0 100 55-65 110-130 165-195-55-65-110-130-165-195z m28 73c34 40 68 81 102 121-34 40-68 81-102 121 0-18 0-36 0-54-75 0-149 0-223 0 0-44 0-89 0-133 74 0 148 0 223 0 0-18 0-37 0-55z" /></svg>