<svg height="1000" width="1000.0" xmlns="http://www.w3.org/2000/svg"><path d="m430 305l0 125-125 0 0 140 125 0 0 125 140 0 0-125 125 0 0-140-125 0 0-125z m23 23l94 0 0 125 125 0 0 94-125 0 0 125-94 0 0-126-125 0 0-93 125 0z m47-280l0 0-5 0-1 0 0 0-5 0 0 0 0 0-6 1 0 0 0 0-5 0 0 0 0 0-6 0 0 0 0 0-5 1 0 0-1 0-5 0 0 0 0 0-5 0-1 0 0 1-5 0 0 0 0 0-5 1-1 0 0 0-5 0 0 0 0 0-5 1-1 0 0 0-5 1 0 0 0 0-5 1-1 0 0 0-5 1 0 0 0 0-5 1 0 0-1 0-5 1 0 0 0 0-5 1 0 0 0 0-6 2 0 0 0 0-5 1 0 0 0 0-5 1-4 2-4 2-4 3-2 4-3 4-1 4 0 5 0 4 1 4 2 5 3 3 3 3 4 3 4 1 5 1 4 0 4-1 5-1 5-1 4-1 5-1 5-1 5-1 5-1 5-1 5 0 4-1 5-1 5 0 5-1 5 0 5-1 5 0 5 0 5-1 5 0 5 0 5 0 5 0 5 0 5 0 5 1 5 0 5 0 5 1 5 0 5 1 5 0 5 1 5 1 4 0 5 1 5 1 5 1 5 1 4 1 5 0 4 0 5-1 4-2 3-3 4-3 2-4 2-4 1-4 0-5-1-4-2-5-2-4-3-3-4-3-4-2-3-1-5-1 0 0 0 0-5-1 0 0-1 0-5-1 0 0 0 0-5-1 0 0 0 0-6-1 0 0 0 0-5-1 0 0 0 0-6-1 0 0 0 0-5 0 0 0 0 0-6-1 0 0 0 0-5 0 0-1 0 0-6 0 0 0 0 0-5 0 0 0-1 0-5-1 0 0 0 0-5 0-1 0 0 0-5 0 0 0 0 0-6-1 0 0 0 0-5 0 0 0 0 0-6 0 0 0z m255 83l-5 0-4 1-5 2-3 2-4 4-2 3-2 4-1 5-1 4 1 5 1 4 3 4 3 4 2 2 2 1 4 3 4 3 4 3 3 3 4 4 4 3 4 3 3 3 4 4 4 3 3 4 4 3 3 4 4 3 3 4 4 4 3 3 3 4 3 4 4 4 3 3 3 4 3 4 3 4 3 4 3 4 2 4 3 4 3 5 3 4 2 4 3 4 2 4 3 5 2 4 2 4 3 5 2 4 1 2 2 4 4 3 3 3 4 2 5 1 4 1 5-1 4-1 4-2 4-3 3-3 2-4 2-4 0-5 0-4-1-5-1-3-1-3 0 0 0 0-3-5 0 0 0 0-2-5 0 0-1 0-2-4 0-1 0 0-3-4 0 0 0-1-2-4-1 0 0 0-2-5 0 0 0 0-3-5 0 0 0 0-3-4 0 0 0 0-3-5 0 0 0 0-3-5 0 0 0 0-3-4 0 0 0 0-3-5 0 0-1 0-3-4 0 0 0 0-3-5 0 0 0 0-3-4 0 0 0 0-4-4 0-1 0 0-3-4 0 0 0 0-3-4-1 0 0 0-3-4 0-1 0 0-4-4 0 0 0 0-3-4 0 0-1 0-3-4 0 0 0 0-4-4 0 0 0 0-4-4 0 0 0-1-4-3 0 0 0-1-3-3-1 0 0-1-3-3-1 0 0 0-3-4-1 0 0 0-4-4 0 0 0 0-4-4 0 0 0 0-4-3 0-1 0 0-4-3 0 0 0 0-4-4 0 0-1 0-4-3 0 0 0-1-4-3 0 0 0 0-4-3 0 0-1 0-4-4 0 0 0 0-4-3 0 0 0 0-2-1-4-3-4-1-4-1z m-519 10l-5 0-4 1-4 2-4 2-1 1 0 0 0 0-4 3 0 1 0 0-4 3 0 0-1 0-4 4 0 0 0 0-4 3 0 0 0 1-4 3 0 0 0 0-4 4 0 0 0 0-4 4 0 0 0 0-4 4 0 0 0 0-4 3 0 1 0 0-4 3 0 1 0 0-4 3 0 1 0 0-4 4 0 0 0 0-4 4 0 0 0 0-3 4 0 0-1 0-3 4 0 0 0 0-4 4 0 0 0 1-3 4 0 0 0 0-4 4 0 0 0 0-3 4 0 0 0 1-4 4 0 0 0 0-3 4 0 0 0 0-3 5 0 0 0 0-3 4 0 0-1 0-3 5 0 0 0 0-3 4 0 0 0 0-3 5 0 0 0 0-3 5 0 0 0 0-3 4 0 0 0 0-2 5-1 0 0 0-2 5 0 0 0 0-3 4 0 1 0 0-3 4 0 0 0 1-2 4 0 0 0 0-3 5 0 0 0 0-2 5 0 0-1 0-2 5 0 0 0 0-2 5 0 0 0 0-3 5 0 0 0 0-1 3-1 4-1 5 0 4 1 5 2 4 3 4 3 3 4 2 4 2 4 1 5 0 4 0 5-2 3-2 4-3 3-4 2-3 1-3 2-4 2-5 2-4 2-4 3-5 2-4 2-4 3-5 2-4 3-4 3-4 2-4 3-5 3-4 2-4 3-4 3-4 3-4 3-4 3-4 3-3 4-4 3-4 3-4 3-3 4-4 3-4 4-3 3-4 4-3 3-4 4-3 4-4 3-3 4-3 4-3 4-4 4-3 1-1 3-3 3-3 2-5 1-4 0-4-1-5-1-4-2-4-3-4-4-3-4-2-4-2-4 0z m264 0l0 0-4 0 0 0-1 0-4 0 0 0 0 0-4 0 0 0 0 0-5 0 0 1 0 0-4 0 0 0 0 0-4 0-1 0 0 0-4 0 0 0 0 0-4 1 0 0-1 0-1 0-4 1-5 2-3 2-4 3-2 4-2 4-2 4 0 5 1 4 1 5 2 4 3 3 4 3 4 3 4 1 4 1 4 0 1-1 4 0 4 0 4-1 4 0 3 0 4 0 4 0 4 0 4 0 4 0 4 0 3 0 4 0 4 1 4 0 4 0 3 1 4 0 4 1 4 0 4 1 3 1 4 0 4 1 4 1 3 0 4 1 4 1 3 1 4 1 4 1 3 1 4 1 3 2 4 1 4 1 3 1 4 2 3 1 4 1 3 2 0 0 0 0 4 1 5 1 5 0 4-1 4-2 4-3 3-3 2-4 2-4 1-5 0-4 0-5-2-4-2-4-3-3-4-3-3-2 0 0-1 0 0 0-3-2-1 0 0 0-4-1 0 0 0 0-4-2 0 0 0 0-4-1 0 0 0 0-4-2 0 0 0 0-4-1 0 0 0 0-4-2 0 0 0 0-4-1 0 0-1 0-3-1-1 0 0 0-4-2 0 0 0 0-4-1 0 0 0 0-4-1 0 0 0 0-4-1 0 0-1 0-4-1 0 0 0 0-4-1 0 0 0 0-4-1 0 0 0 0-4-1-1 0 0 0-4-1 0 0 0 0-4-1 0 0 0 0-4 0-1 0 0 0-4-1 0 0 0 0-4-1 0 0 0 0-5 0 0 0 0 0-4-1 0 0 0 0-4 0 0 0-1 0-4-1 0 0 0 0-4 0 0 0 0 0-5 0 0 0 0 0-4 0 0 0 0-1-4 0-1 0 0 0-4 0 0 0 0 0-4 0 0 0-1 0-4 0 0 0z m-155 39l-4 0-5 1-3 1-2 1 0 0 0 0-4 2 0 0 0 0-3 2-1 1 0 0-3 2 0 0-1 0-3 2 0 0 0 0-4 2 0 0 0 0-4 2 0 1 0 0-3 2 0 0-1 0-3 2 0 0 0 0-4 3 0 0 0 0-3 2 0 0 0 0-4 3 0 0 0 0-3 2 0 0-1 1-3 2 0 0 0 0-3 3 0 0-1 0-3 2 0 1 0 0-3 2 0 0-1 0-3 3 0 0 0 0-3 3 0 0 0 0-3 3-1 0 0 0-3 3 0 0 0 0-3 3 0 0 0 0-3 3 0 0 0 0-3 3-1 0 0 0-3 3 0 0 0 0-3 3 0 0 0 0-3 3 0 1 0 0-3 3 0 0 0 0-3 3 0 0 0 0-3 3 0 0 0 0-3 4 0 0 0 0-3 3 0 0 0 0-2 3-1 0 0 1-2 3 0 0 0 0-3 3 0 0 0 1-3 3 0 0 0 0-2 3 0 0-1 1-2 3 0 0 0 0-2 3-1 1 0 0-2 3 0 0 0 0-2 4-1 0 0 0-2 3-2 4-1 4-1 5 1 4 1 5 2 4 3 3 3 4 4 2 4 2 4 1 5 0 4-1 5-2 4-2 3-3 2-3 2-3 2-3 2-3 3-3 2-4 2-3 2-3 3-3 2-3 3-2 2-3 3-3 2-3 3-3 2-3 3-3 3-2 3-3 2-3 3-2 3-3 3-2 3-3 3-2 3-3 3-2 3-3 3-2 3-2 3-3 3-2 3-2 3-2 3-2 3-2 4-2 3-2 3-2 3-2 4-2 3-2 2 0 3-3 4-3 2-4 2-4 1-4 1-5-1-4-1-5-3-4-2-3-4-3-4-2-4-2-5 0z m393 59l-5 1-4 1-4 1-4 3-3 3-3 4-1 4-1 5-1 4 1 5 2 4 2 4 2 3 3 2 3 3 2 3 3 3 2 3 3 3 2 3 3 2 2 3 3 3 2 3 2 3 3 4 2 3 2 3 2 3 2 3 2 3 2 4 2 3 2 3 2 3 2 4 2 3 1 3 2 4 2 3 1 3 2 4 2 3 1 4 1 3 2 4 1 3 2 4 1 3 1 4 1 4 2 3 1 4 1 3 0 3 2 4 2 4 4 3 3 3 4 2 5 1 4 0 5 0 4-1 4-3 4-2 3-4 2-4 2-4 0-5 0-4-1-4 0-2 0 0 0 0-2-4 0 0 0-1-1-3 0-1 0 0-1-4 0 0 0 0-2-4 0 0 0 0-1-4 0 0 0 0-2-4 0 0 0 0-1-4 0 0 0 0-2-4 0 0 0 0-1-4 0 0 0-1-2-3 0 0 0-1-2-3 0 0 0-1-2-3 0 0 0-1-1-3 0 0-1-1-1-3 0 0 0 0-2-4 0 0 0 0-2-4 0 0 0 0-2-4 0 0 0 0-2-4 0 0-1 0-1-4-1 0 0 0-2-3 0-1 0 0-2-3 0 0 0 0-2-4 0 0 0 0-2-4-1 0 0 0-2-3 0 0 0-1-2-3 0 0 0 0-3-4 0 0 0 0-2-3 0 0 0-1-3-3 0 0 0 0-2-3 0-1-1 0-2-3 0 0 0 0-3-3 0-1 0 0-2-3-1 0 0 0-2-3 0-1 0 0-3-3 0 0 0 0-3-3 0 0 0 0-3-4 0 0 0 0-3-3 0 0 0 0-3-3 0 0 0 0-3-3 0 0 0-1-3-3 0 0 0 0-3-2-3-3-4-3-5-1-4-1z m-564 171l-5 0-4 1-4 2-4 2-3 4-3 3-2 4-1 4-1 4 0 0 0 0 0 4 0 0-1 0 0 4 0 1 0 0-1 4 0 0 0 0-1 4 0 0 0 0 0 5 0 0 0 0-1 4 0 0 0 0 0 4 0 0 0 1 0 4 0 0-1 0 0 4 0 0 0 0 0 5 0 0 0 0 0 4 0 0 0 0-1 4 0 1 0 0 0 4 0 0 0 0 0 4 0 0 0 1 0 4 0 0 0 0 0 4 0 0 0 1 0 4 0 0 0 0 0 4 0 0 0 0 1 5 0 0 0 0 0 4 0 0 0 0 0 4 0 1 0 0 0 4 1 0 0 0 0 4 0 0 0 1 0 4 0 0 0 0 1 4 0 0 0 0 0 4 0 1 0 0 1 4 0 0 0 0 1 4 0 0 0 0 0 4 1 1 0 0 0 4 0 0 0 0 1 4 0 0 0 0 1 4 0 1 0 0 1 4 0 0 0 0 1 4 0 0 0 0 1 4 0 0 0 1 1 4 0 0 0 0 1 4 0 0 0 0 1 4 0 0 0 0 2 4 0 0 0 0 1 4 0 1 0 0 1 1 1 4 3 4 3 3 4 3 4 2 4 1 5 0 4-1 5-1 4-2 3-3 3-4 2-4 2-4 0-5 0-4-1-4 0-1-2-4-1-4-1-3-1-4-1-3-1-4 0-4-1-4-1-3-1-4 0-4-1-4-1-3 0-4-1-4 0-4 0-3-1-4 0-4 0-4-1-4 0-4 0-3 0-4 0-4 0-4 0-4 0-4 0-3 1-4 0-4 0-4 1-4 0-3 0-4 1-4 0-4 1-4 1-3 0-4 1-4 0-4 0-5-1-4-2-4-3-4-3-3-4-2-5-2-4-1z m754 46l-5 0-4 1-4 2-4 2-3 4-3 4-2 4 0 4-1 4 1 4 0 5 0 5 0 5 0 5 0 5 0 5-1 5 0 5 0 5-1 5 0 5-1 5 0 5-1 5-1 4 0 5-1 5-1 5-1 5-1 5-1 5-1 4-1 5-1 5-2 5-1 4-2 5-1 5-1 4-2 5-2 5-1 4-2 5-2 4-2 5-2 5-2 4-2 5-2 4-2 4-2 5-2 4-2 5-1 4 0 5 1 4 2 4 2 4 3 4 4 2 4 2 4 2 5 0 4-1 5-1 4-2 3-3 3-3 2-3 3-5 0 0 0 0 2-5 0 0 0 0 2-5 0 0 0 0 3-5 0 0 0 0 2-5 0 0 0 0 2-5 0 0 0 0 2-5 0 0 0 0 2-5 0 0 0 0 2-5 0 0 0-1 2-4 0-1 0 0 2-5 0 0 0 0 2-5 0 0 0 0 2-5 0 0 0 0 2-5 0 0 0-1 1-5 0 0 0 0 2-5 0 0 0 0 1-5 0 0 0 0 2-5 0-1 0 0 1-5 0 0 0 0 1-5 0 0 0 0 2-6 0 0 0 0 1-5 0 0 0 0 1-5 0-1 0 0 1-5 0 0 0 0 1-5 0 0 0-1 1-5 0 0 0 0 1-5 0 0 0-1 1-5 0 0 0 0 0-5 0 0 0-1 1-5 0 0 0 0 0-5 1 0 0-1 0-5 0 0 0 0 0-5 0-1 0 0 1-5 0 0 0 0 0-6 0 0 0 0 0-5 0 0 0 0 1-6 0 0 0 0 0-5 0 0 0-1 0-5 0 0 0 0 0-6 0 0 0 0 0-5 0 0 0 0-1-6 0 0 0 0 0-4 0-5-2-4-2-4-3-3-4-3-4-2-4-2-4 0z m-853 16l-5 0-4 1-4 1-4 3-4 3-2 4-2 4-1 4-1 4 0 4 0 0 0 0 0 5 0 1 0 0 1 5 0 0 0 0 0 6 0 0 0 0 0 5 0 0 0 0 0 6 0 0 0 0 1 5 0 0 0 1 0 5 0 0 0 0 1 5 0 1 0 0 0 5 0 0 0 0 1 5 0 1 0 0 1 5 0 0 0 0 0 5 0 1 0 0 1 5 0 0 0 0 1 5 0 1 0 0 1 5 0 0 0 0 1 5 0 0 0 1 1 5 0 0 0 0 1 5 0 0 0 0 2 6 0 0 0 0 1 5 0 0 0 0 1 5 0 0 0 1 2 5 0 0 0 0 1 5 0 0 0 0 2 5 0 0 0 0 2 5 0 1 0 0 1 5 0 0 0 0 2 5 0 0 0 0 2 5 0 0 0 0 2 5 0 0 0 1 2 4 0 1 0 0 2 5 0 0 0 0 2 5 0 0 0 0 2 5 0 0 0 0 2 5 0 0 0 0 2 5 0 0 0 0 3 5 0 0 0 0 2 5 0 0 0 0 2 5 1 0 0 0 0 1 3 4 3 3 3 3 4 2 5 1 4 0 5 0 4-1 4-3 4-2 3-4 2-4 2-4 0-5 0-4-1-5-1-3-1-1-2-5-2-4-2-4-2-5-2-4-2-5-2-5-2-4-2-5-1-4-2-5-1-5-2-4-1-5-2-5-1-4-1-5-2-5-1-5-1-4-1-5-1-5-1-5-1-5-1-5 0-5-1-4-1-5 0-5-1-5 0-5-1-5 0-5 0-5-1-5 0-5 0-5 0-5 0-4 0-4-1-5-2-4-3-3-4-4-3-2-5-2-4 0z m756 57l-4 0-5 1-4 2-4 3-3 3-2 4-2 4-1 3 0 0 0 0 0 0 0 0-1 4 0 4-1 4-1 3 0 4-1 4-1 4-1 3-1 4-1 3-1 4-1 4-2 3-1 4-1 3-1 4-2 4-1 3-2 4-1 3-1 4-2 3-2 3-1 4-2 3-2 4-1 3-2 3-2 4-2 3-2 3-2 3-2 4-2 3-2 3-2 3-2 3-2 3-3 3-2 3-2 4-2 1-2 4-2 4-1 5 0 4 1 5 2 4 2 4 3 3 4 3 4 2 4 1 5 1 4-1 4-1 5-2 3-3 3-3 1-1 0-1 0 0 3-3 0 0 0 0 2-3 1-1 0 0 2-3 0 0 0 0 3-4 0 0 0 0 2-3 0 0 0 0 3-4 0 0 0 0 2-3 0-1 0 0 2-3 0 0 1 0 2-4 0 0 0 0 2-4 0 0 0 0 2-3 0-1 0 0 2-3 0 0 1-1 2-3 0 0 0 0 2-4 0 0 0 0 2-4 0 0 0 0 2-4 0 0 0 0 2-4 0 0 0 0 1-4 1 0 0 0 1-4 0 0 0 0 2-4 0 0 0 0 2-4 0 0 0 0 2-4 0 0 0 0 1-4 0 0 0 0 2-4 0 0 0 0 1-4 0 0 0 0 2-4 0 0 0 0 1-4 0 0 0 0 2-4 0 0 0 0 1-4 0 0 0-1 1-4 0 0 0 0 2-4 0 0 0 0 1-4 0 0 0 0 1-4 0 0 0 0 1-4 0-1 0 0 1-4 0 0 0 0 1-4 0 0 0 0 1-4 0 0 0-1 1-4 0 0 0 0 1-4 0 0 0 0 1-4 0 0 0-1 0-4 0 0 0 0 0 0 1-5-1-4-1-4-2-4-3-4-4-3-4-2-4-2-5 0z m-590 160l-4 1-4 2-4 2-4 3-3 3-2 4-1 5-1 4 1 5 1 4 2 4 2 3 1 2 0 0 0 0 3 3 0 0 0 0 3 3 0 1 0 0 3 3 0 0 0 0 3 3 0 0 0 0 3 3 0 0 0 0 3 3 0 1 0 0 3 3 0 0 0 0 3 3 0 0 1 0 3 3 0 0 0 0 3 3 0 0 0 0 3 3 0 0 0 0 3 3 0 0 1 0 3 3 0 0 0 0 3 3 0 0 0 0 3 2 1 1 0 0 3 2 0 0 0 0 3 3 1 0 0 0 3 3 0 0 0 0 3 2 1 0 0 1 3 2 0 0 0 0 4 2 0 1 0 0 3 2 0 0 0 0 4 2 0 1 0 0 3 2 1 0 0 0 3 2 0 0 0 0 4 3 0 0 0 0 4 2 0 0 0 0 3 2 1 0 0 0 3 2 0 0 1 0 3 2 0 0 0 1 4 1 0 1 0 0 4 2 0 0 0 0 4 2 0 0 0 0 4 1 0 1 0 0 4 1 0 0 0 0 4 2 0 0 0 0 4 2 0 0 0 0 4 2 0 0 0 0 4 1 0 1 0 0 4 1 0 0 0 0 4 2 4 1 4 0 5 0 4-1 4-2 4-3 3-4 2-3 2-5 1-4 0-5-1-4-2-4-2-4-4-3-3-3-4-2-3-1-4-2-3-1-4-2-3-1-3-2-4-1-3-2-4-2-3-2-3-1-4-2-3-2-3-2-3-2-4-2-3-2-3-2-3-2-3-2-3-3-3-2-4-2-3-2-2-3-3-2-3-3-3-2-3-3-3-2-3-3-3-2-2-3-3-3-3-3-3-2-2-3-3-3-2-3-3-3-2-3-1-1-4-3-3-3-5-1-4-1-5-1z m426 77l-5 0-4 1-4 2-1 1-4 2-3 1-3 2-4 2-3 2-3 1-4 2-3 1-4 2-3 1-4 2-3 1-4 2-3 1-4 1-4 1-3 1-4 2-3 1-4 1-4 1-3 1-4 1-4 0-3 1-4 1-4 1-4 0-3 1-4 1-4 0-4 1-3 0-4 0-4 1-4 0-4 0-4 1-3 0-4 0-4 0-5 0-4 2-4 2-4 3-3 3-2 4-1 4-1 5 0 5 1 4 2 4 2 4 4 3 3 3 4 2 5 1 4 0 4 0 0 0 0 0 4 0 0 0 1 0 4-1 0 0 0 0 4 0 0 0 0 0 5 0 0 0 0 0 4 0 0 0 0 0 4-1 1 0 0 0 4 0 0 0 0 0 4-1 0 0 0 0 5 0 0 0 0 0 4-1 0 0 0 0 4-1 0 0 1 0 4 0 0 0 0 0 4-1 0 0 0 0 4-1 0 0 1 0 4-1 0 0 0 0 4-1 0 0 0 0 4-1 0 0 0 0 4-1 1 0 0 0 4-1 0 0 0 0 4-1 0 0 0 0 4-1 0 0 0 0 4-2 0 0 1 0 3-1 1 0 0 0 4-1 0 0 0 0 4-2 0 0 0 0 4-1 0 0 0 0 4-2 0 0 0 0 4-1 0 0 0 0 4-2 0 0 0 0 4-1 0 0 1-1 3-1 0 0 1 0 3-2 0 0 1 0 3-2 0 0 1 0 3-2 0 0 1 0 3-1 0 0 0-1 4-1 0 0 0 0 4-2 0 0 0 0 4-2 0 0 0-1 4-1 0-1 0 0 4-2 0 0 0 0 2-1 3-2 4-4 2-3 2-5 1-4 0-5-1-4-1-4-3-4-3-4-3-3-4-2-5-1-4 0z m-440 39l-4 1-5 1-4 3-3 3-3 3-2 4-1 5-1 4 0 5 1 4 2 4 3 4 3 2 1 1 0 0 0 0 4 4 0 0 0 0 4 3 0 0 1 0 4 4 0 0 0 0 4 3 0 0 0 0 5 3 0 0 0 0 4 3 0 1 0 0 5 3 0 0 0 0 4 3 0 0 1 0 4 3 0 0 0 0 5 3 0 0 0 0 4 3 0 0 1 0 4 3 0 0 0 0 5 2 0 0 0 1 5 2 0 0 0 0 4 3 1 0 0 0 4 2 0 0 0 1 5 2 0 0 0 0 5 3 0 0 0 0 5 2 0 0 0 0 5 2 0 0 0 0 5 3 0 0 0 0 5 2 0 0 0 0 5 2 0 0 0 0 5 2 0 0 0 0 5 2 0 0 0 0 5 2 0 0 1 0 4 2 1 0 0 0 5 2 0 0 0 0 5 2 0 0 0 0 5 2 0 0 0 0 5 2 0 0 1 0 5 1 0 0 0 0 5 2 0 0 0 0 5 1 0 0 0 0 5 2 1 0 0 0 5 1 0 0 0 0 5 1 0 0 0 0 6 2 0 0 0 0 4 1 5 0 4 0 5-1 4-2 4-3 3-3 2-4 2-4 1-5 0-4-1-5-1-4-3-4-3-3-4-3-4-2-3-1-5-1-4-1-5-1-5-1-5-2-4-1-5-2-5-1-4-2-5-1-5-2-4-1-5-2-5-2-4-2-5-2-4-2-5-2-4-2-5-2-4-2-4-2-5-3-4-2-4-2-5-3-4-2-4-3-4-3-4-2-4-3-5-3-4-2-4-3-4-3-4-3-3-3-4-3-4-3-1-1-4-3-4-1-4-1-5-1z m543 3l-5 0-4 1-5 2-3 2-1 2-4 3-4 3-4 3-4 3-4 3-4 2-4 3-5 3-4 2-4 3-4 3-4 2-5 3-4 2-4 2-5 3-4 2-4 2-5 2-4 2-5 2-4 2-5 2-4 2-5 2-4 2-5 1-5 2-4 1-5 2-5 1-5 2-4 1-5 2-5 1-5 1-4 1-5 1-3 1-5 1-4 2-3 3-3 3-2 4-2 5-1 4 0 5 1 4 2 4 3 4 3 3 4 3 4 2 4 1 5 0 4 0 3-1 0 0 0 0 5-1 0 0 1 0 5-2 0 0 0 0 5-1 0 0 0 0 5-1 0 0 1 0 5-2 0 0 0 0 5-1 0 0 0 0 5-2 0 0 1 0 5-1 0 0 0 0 5-2 0 0 0 0 5-2 0 0 0 0 5-2 0 0 0 0 5-2 1 0 0 0 5-2 0 0 0 0 5-2 0 0 0 0 5-2 0 0 0 0 5-2 0 0 0 0 5-2 0 0 0 0 5-2 0 0 0 0 5-3 0 0 0 0 5-2 0 0 0 0 5-2 0 0 0 0 5-3 0 0 0 0 5-2 0-1 0 0 4-2 1 0 0 0 4-3 0 0 1 0 4-2 0-1 0 0 5-2 0 0 0 0 5-3 0 0 0 0 4-3 0 0 0 0 5-3 0 0 0 0 5-3 0 0 0 0 4-3 0 0 0 0 5-3 0 0 0-1 4-3 0 0 0 0 5-3 0 0 0 0 4-3 0 0 0 0 4-4 1 0 0 0 4-3 0 0 0 0 2-2 3-3 3-4 2-4 1-4 0-5-1-4-1-5-2-4-3-3-4-3-4-2-4-2-4 0z" /></svg>