<svg height="1000" width="1000.0" xmlns="http://www.w3.org/2000/svg"><path d="m385 206l-2 1c-57 34-96 65-121 94-24 29-35 56-35 81-1 51 39 93 78 133 39 40 78 78 82 119 2 21-4 43-23 67-20 25-53 52-104 82l-19 10 389 0 2 0c52-31 86-58 107-85 21-26 28-51 26-75-5-47-47-86-86-126-39-40-75-80-74-125 0-22 9-46 32-74 24-27 62-57 118-91l18-11-388 0z m3 12l344 0c-48 30-81 57-103 83-25 29-36 56-36 81-1 51 39 93 78 133 39 40 78 78 82 119 2 21-4 43-23 67-19 24-52 51-103 81l-344 0c43-26 71-51 90-74 21-26 28-51 25-75-5-47-46-86-85-126-39-40-75-80-75-125 1-22 10-46 33-74 23-27 61-57 117-90z m-50 102c-8 0-8 11 0 11l205 0c8 0 8-11 0-11l-46 0-159 0z m20 115c-7 0-7 12 0 12l188 0c7 0 7-12 0-12l-188 0z m63 116c-8 0-8 11 0 11l208 0c8 0 8-11 0-11l-208 0z m41 115c-7 0-7 12 0 12l208 0c8 0 8-12 0-12l-208 0z" /></svg>