<svg height="1000" width="1000.0" xmlns="http://www.w3.org/2000/svg"><path d="m396 204l0 3 0 49c-11 3-21 6-32 10l0 0 0 0c-10 5-20 10-29 16l-38-37-53 53 38 37c-12 19-21 40-25 61l-53 0 0 76 53 0c2 10 6 21 10 31 4 11 10 20 16 29l-39 38 54 53 37-36 0 15 33-1c8 3 15 6 23 8 1 7 4 14 7 22l0 33 2 0c4 0 8 1 12 1l-36 35 54 53 38-38c19 12 40 20 62 25l0 54 2 0c24 0 71 0 71 0l0 0 2 0 0-2 0-52c11-3 22-6 32-10l0 0 0 0c10-5 20-10 29-16l39 38 53-54-38-37c12-19 20-40 25-62l52 0 0-75-53 0c-2-10-5-21-10-31l0 0c-4-11-10-20-16-29l37-37-54-53-36 36 0-16-3 0-29 0c-8-3-15-5-22-7-2-7-5-14-7-22l0-31-17 0c0 0 0 0 0 0l36-37-54-53-36 37c-19-12-40-21-61-25l0-52-76 0z m5 5l66 0 0 51 2 0c22 5 44 13 63 26l2 1 35-36 47 46-36 36 1 1-53 0 0 0 0 33c-31-42-87-60-137-39-59 24-86 91-61 149l0 0c8 21 22 37 39 49l-34 0 0 0 0 54-37 36-47-46 38-37-1-2c-6-9-12-19-16-30l0 0c-5-11-8-22-10-32l-1-2-52 0 0-66 52 0 0-2c5-22 13-44 26-63l1-1-37-37 47-46 36 36 2-1c9-6 19-12 30-16l0 0c11-5 22-8 33-10l2-1 0-51z m32 115c38 0 74 19 95 52l0 10c-11 2-22 6-32 10l0 0 0 0c-11 4-20 10-29 16l-38-37-53 53 37 37c-12 19-20 39-25 61l-9 0c-20-11-36-29-45-51l0 0c-23-55 3-119 58-142l0 0c14-6 28-8 41-9z m100 15l57 0 9 0 0 27 0 0-1 24 2 0c3 1 6 1 8 2l1 0c8 2 15 4 22 7l0 0c11 4 21 9 30 15l1 1c1 0 1 0 2 1l1 1 36-36 47 46-36 36 1 2c7 9 12 19 17 30l0 0c4 10 7 21 10 32l0 2 52 0 0 65-51 1-1 2c-4 22-13 43-26 63l-1 1 38 37-46 47-38-37-2 1c-9 6-19 12-30 16-11 5-22 8-33 10l-2 1 0 53c-4 0-43 0-65 0l0-53-2 0c-23-5-45-14-64-26l-1-1-38 37-47-46 36-35 3 0-1-2 0 0-1-1-1-1c-1-2-2-4-3-6-3-4-5-8-7-12-1-1-1-2-1-2 0-1-1-2-1-2 0-1-1-1-1-2 0-1-1-1-1-2 0-1 0-1-1-2 0-1 0-1-1-2l0 0 0 0c0-1 0-1 0-2l-1-1 0 0c-3-7-5-14-7-21l0-1 0 0c0 0 0 0 0 0-1-3-1-5-2-7l0-3 0 0 0 0-2 0-12 0-10 0-29 1 0-9 0-57 52 0 1-2c4-22 13-44 26-63l1-2-37-36 46-46 37 36 2-1c9-6 19-12 30-16l0 0c11-5 22-8 33-11l2 0 0-6 0-2 0-43z m70 41c1 2 2 4 2 6 0 0-1 0-2 0l0 0 0-6z m57 19l0 9c-5-3-11-6-16-9l16 0z m-93 50c-1 0-2 0-3 0l0 0c0 0 0 0 0 0l0 0 0 0c-1 0-1 0-1 0l0 0c-2 0-3 0-5 0l0 0c0 0 0 1 0 1l0 0c-12 0-24 3-36 8-39 16-64 52-69 91l0 0c0 0 0 0 0 0 0 1 0 1 0 1 0 0 0 0 0 0l0 0c0 0 0 0 0 0l0 0c0 1 0 2 0 3l0 0c0 0 0 0 0 0 0 0 0 1 0 1 0 0 0 0 0 0 0 0 0 0 0 0l0 0c-1 2-1 5-1 8l0 0c0 0 0 0 0 0 0 0 0 0 0 0 0 0 0 0 0 0 0 0 0 0 0 0l0 0c0 3 0 5 0 8l0 0c0 0 0 0 0 0 0 0 0 0 0 0l0 0c1 3 1 5 1 8l0 0c0 0 0 0 0 1l0 0c1 1 1 2 1 3l0 0c0 0 0 0 0 0l0 0c0 0 0 0 0 0 0 1 0 1 0 1l0 0c0 0 0 0 0 0l0 0c0 1 0 2 1 3l0 0c0 0 0 0 0 0 0 0 0 1 0 1l0 0c0 1 0 2 1 4l0 0c0 0 0 0 0 0 0 0 0 0 0 0l0 0c0 1 0 2 1 3l0 0 0 0c0 1 0 1 0 1l0 0c1 3 1 5 2 7 1 1 1 1 1 2l0 0c0 0 0 0 0 0l0 0c1 1 1 2 1 3l0 0c1 1 1 2 2 3 0 0 0 0 0 0 0 1 0 1 0 1 1 3 2 5 4 7 0 0 0 0 0 0 0 0 0 0 0 1 0 0 0 0 0 0 28 49 90 71 144 49 58-25 85-92 61-149-11-25-29-44-51-56l0 0c0 0 0 0 0 0l0 0 0 0c-1-1-2-1-3-1l0 0c0-1 0-1 0-1l0 0c-2 0-3-1-4-1l0 0c0 0 0 0 0 0l0 0c-1-1-2-1-3-2l0 0c0 0 0 0 0 0l0 0 0 0c-1 0-2-1-3-1l0 0c0 0-1 0-1 0l0 0c-1-1-2-1-3-1l0 0c0-1 0-1-1-1l0 0c-1 0-1 0-2 0l0 0c-1-1-1-1-1-1l0 0c-2 0-5-1-7-2l0 0c0 0 0 0 0 0l0 0 0 0c-1 0-2 0-3 0l0 0c0 0-1 0-1-1l0 0c-1 0-2 0-3 0l0 0c-1 0-1 0-1 0l0 0 0 0c-1 0-2-1-3-1l0 0c0 0 0 0-1 0l0 0c-1 0-2 0-3 0l0 0c0 0 0 0 0 0l0 0c-1 0-2 0-3-1l0 0c-1 0-1 0-1 0l0 0c-1 0-3 0-4 0 0 0 0 0 0 0l0 0 0 0c-1 0-2 0-3 0z m0 5l0 0c1 0 2 0 3 0l0 0c0 0 0 0 1 0l0 0c1 0 1 0 2 0l0 0c1 0 1 0 1 0l0 0c1 1 2 1 3 1l0 0c1 0 1 0 1 0l0 0c1 0 2 0 3 0l0 0c0 0 0 0 1 0l0 0c0 0 1 1 2 1l0 0c1 0 1 0 1 0l0 0c1 0 2 0 3 0l0 0c0 0 0 0 1 1l0 0c1 0 2 0 2 0l0 0c1 0 1 0 1 0l0 0c2 1 4 1 6 2l0 0c1 0 1 0 1 0l0 0c1 1 2 1 3 1l0 0c0 0 0 0 0 0l0 0c1 1 2 1 4 1l0 0c0 0 0 1 0 1l0 0 0 0c1 0 2 0 3 1l0 0c0 0 0 0 0 0l0 0c1 0 2 1 3 1l0 0c0 0 0 0 0 0l0 0c1 1 2 1 3 2l0 0c0 0 1 0 1 0l0 0c1 0 2 1 2 1l0 0c1 0 1 1 1 1l0 0c21 11 38 29 48 53 23 55-3 119-58 142l0 0c-52 22-111 1-138-47 0 0 0 0 0 0 0 0 0 0 0 0 0 0 0 0 0 0 0 0 0 0 0 0l0 0c-1-2-2-5-3-7 0 0 0 0 0 0 0 0 0 0 0 0-1 0-1-1-1-1 0 0 0 0 0 0 0-1-1-2-1-3 0 0 0 0 0 0-1-1-1-2-1-3-1 0-1-1-1-1 0 0 0 0 0 0-1-3-2-5-2-7l0 0c0-1 0-1 0-1 0 0 0 0 0 0-1-1-1-2-1-3l0 0c0 0 0 0 0 0 0 0 0-1 0-1 0 0 0 0 0 0 0 0 0 0 0 0l0 0c-1-1-1-2-1-3l0 0c0 0 0-1 0-1-1-1-1-2-1-3l0 0c0 0 0 0 0 0 0 0 0 0 0-1 0 0 0 0 0 0l0 0c0-1-1-2-1-3l0 0c0 0 0 0 0 0 0 0 0-1 0-1l0 0c0-2 0-5-1-7l0 0c0 0 0 0 0 0 0 0 0 0 0-1l0 0c0-2 0-5 0-7l0 0c0 0 0 0 0 0 0 0 0 0 0 0 0 0 0 0 0 0 0 0 0 0 0 0l0 0c0-3 0-5 1-8l0 0c0 0 0 0 0 0l0 0c0 0 0 0 0 0 0 0 0 0 0 0 0 0 0 0 0 0l0 0c0-1 0-3 0-4l0 0c0 0 0 0 0 0 0 0 0 0 0 0 0 0 0 0 0 0l0 0c5-37 29-72 66-87l0 0c11-5 23-8 34-8l0 0c0-1 0-1 1-1l0 0c1 0 2 0 4 0l0 0c0 0 1 0 1 0l0 0c1 0 2 0 3 0z m-178 147l0 0c0 1 0 1 0 2-2-1-3-1-5-2l5 0z m14 41c3 6 6 12 10 18-4 0-7-1-10-1l0-17z" /></svg>