<svg height="1000" width="1000.0" xmlns="http://www.w3.org/2000/svg"><path d="m500 48c-178-2-349 112-416 276-70 161-34 362 89 487 119 128 314 175 477 115 169-58 294-224 301-403 12-176-92-351-250-428-62-31-132-47-201-47z m0 49c175-3 342 123 388 293 47 159-17 344-155 439-143 105-354 97-489-18-136-109-185-309-115-468 60-147 212-248 371-246z m0 179c-72 52-143 104-215 156 27 84 55 169 82 253 89 0 177 0 266 0 28-84 55-169 82-253-71-52-143-104-215-156z m0 30c62 45 124 90 187 135-24 74-48 147-72 220-77 0-153 0-230 0-24-73-48-146-72-220 63-45 125-90 187-135z" /></svg>