<svg height="1000" width="1000.0" xmlns="http://www.w3.org/2000/svg"><path d="m500 286c-85-2-167 54-198 133-33 76-15 170 43 229 56 60 149 82 226 54 81-28 141-108 143-194 5-83-46-166-121-201-29-14-61-21-93-21z m0 39c78-2 152 55 170 131 20 73-14 156-79 194-67 42-160 31-215-26-58-56-68-152-24-219 32-49 89-81 148-80z m55 49c-19 36-39 71-58 107-18 2-23 29-6 36 11 8 20-5 30-4 30 0 59 0 89 0 0-8 0-17 0-25-30 0-60 0-89 0 18-34 37-68 56-102-7-4-14-8-22-12z m-51-324l-7 0 0 0 0 0-6 0 0 0 0 0-7 0 0 0 0 0-6 1 0 0-1 0-6 0 0 0 0 0-6 0-1 0 0 0-6 1 0 0 0 0-6 1-1 0 0 0-6 0 0 0 0 0-6 1-1 0 0 0-6 1 0 0 0 0-6 1-1 0 0 0-6 1 0 0 0 0-6 1-1 0 0 0-6 1 0 1 0 0-6 1 0 0-1 0-6 1 0 0 0 0-6 2 0 0 0 0-4 1-4 1-4 2-3 3-3 4-2 4-2 4 0 5 0 4 1 5 2 4 3 4 3 3 4 2 5 2 4 1 5 0 3-1 3-1 6-1 6-1 6-2 5-1 6-1 6-1 6-1 6 0 6-1 5-1 6 0 6-1 6 0 6-1 6 0 6 0 6 0 6 0 6 0 5 0 6 0 6 1 6 0 6 1 6 0 6 1 5 0 6 1 6 1 6 1 6 1 5 1 2 0 4 1 5 0 4-2 4-2 4-2 3-4 3-3 1-5 1-4 0-5-1-4-1-4-3-4-3-4-3-2-5-2-3-1-2-1 0 0 0 0-6-1 0 0-1 0-6-1 0 0 0 0-6-1 0 0-1 0-6-1 0 0 0 0-6-1 0 0 0 0-7-1 0 0 0 0-6 0 0-1-1 0-6 0 0 0 0 0-6-1 0 0-1 0-6 0 0 0 0 0-6 0-1 0 0 0-6-1 0 0 0 0-6 0-1 0 0 0-6 0 0 0z m246 79l-5 1-4 1-4 3-3 3-3 4-1 4-2 4 0 5 1 4 1 5 2 4 3 3 3 3 2 1 0 0 2 2 0 0 3 1 0 0 2 2 0 0 2 2 2 2 0 0 3 2 0 0 2 1 2 2 0 0 2 2 3 2 0 0 2 2 2 2 0 0 2 2 2 2 1 0 2 2 2 2 2 2 0 0 2 2 0 0 2 2 0 0 2 2 2 2 0 0 2 3 0 0 2 2 2 2 0 0 2 2 2 2 0 0 2 3 0 0 2 2 2 2 2 2 0 0 2 3 2 2 2 2 0 1 1 2 0 0 2 2 0 0 2 3 0 0 1 0 2 4 3 3 2 4 3 3 2 3 3 4 2 3 2 4 0 0 3 3 2 4 2 4 3 3 2 4 2 3 2 4 2 4 2 3 2 4 2 4 1 2 3 4 3 4 3 2 4 2 5 2 4 0 5-1 4-1 4-2 4-3 3-3 2-4 2-4 0-5 0-5-1-4-1-3-2-3 0 0 0 0-2-4 0 0 0-1-2-4 0 0 0 0-2-4 0 0 0 0-2-4-1 0 0 0-2-4 0 0 0 0-2-4 0 0 0 0-3-4 0 0 0 0-2-4 0 0 0 0-3-4 0 0 0 0-2-4 0 0 0 0-3-4 0 0 0 0-2-4 0 0-1 0-2-4 0 0 0 0-3-4 0 0 0 0-3-4 0 0 0 0-2-3 0-1-1 0-2-3 0 0 0 0-3-4 0 0 0 0-3-3-2-3 0 0 0 0-2-3 0 0 0 0-2-2 0 0 0 0-2-3 0 0 0 0-2-3 0 0 0 0-2-2 0 0 0 0-2-3 0 0 0 0-3-3 0 0 0 0-2-2 0 0 0 0-2-3 0 0 0 0-2-2 0 0 0 0-3-3 0 0 0 0-2-2 0 0 0 0-2-3 0 0 0 0-2-2-1 0 0 0-2-3 0 0 0 0-2-2 0 0 0 0-3-3 0 0 0 0-2-2 0 0 0 0-2-2 0 0-1 0-2-3 0 0 0 0-2-2 0 0 0 0-3-2 0 0 0 0-2-2 0 0 0 0-3-3 0 0 0 0-2-2 0 0 0 0-3-2 0 0 0 0-2-2 0 0 0 0-3-2 0 0 0 0-2-2-1 0 0-1-2-1 0-1 0 0-3-2 0 0 0 0-2-2 0 0 0 0-3-2 0 0 0 0-3-2 0 0 0 0-2-2 0 0 0 0-2-1-4-2-4-2-5 0z m-521 12l-5 1-4 2-3 2 0 0 0 0-1 0-2 2 0 0 0 0-3 2 0 0 0 0-2 2 0 0 0 0-3 2 0 0 0 0-2 2 0 0 0 1-3 2 0 0 0 0-2 2 0 0 0 0-3 2 0 0 0 0-2 2 0 0 0 0-3 2 0 1 0 0-2 2 0 0 0 0-2 2 0 0-1 0-2 2 0 0 0 1-2 2 0 0 0 0-3 2 0 0 0 0-2 3 0 0 0 0-2 2 0 0 0 0-2 2-1 0 0 1-2 2 0 0 0 0-2 2 0 0 0 1-2 2 0 0 0 0-2 2-1 0 0 1-2 2 0 0 0 0-2 3 0 0 0 0-2 2 0 0 0 0-2 3 0 0 0 0-2 2 0 0 0 1-2 2-1 0 0 0-2 3 0 0 0 0-2 2 0 0 0 1-2 2 0 0 0 0-2 3 0 0 0 0-2 3 0 0 0 0-2 2 0 1 0 0-2 2 0 0 0 0-2 3 0 0 0 0-2 3 0 0 0 0-1 3 0 0-1 0-1 3 0 0 0 0-2 2-1 2 0 0 0 0-2 3 0 0 0 0-2 2 0 1 0 0-2 2 0 0 0 0-2 3 0 0 0 0-2 3 0 0 0 0-2 3 0 0 0 0-2 3 0 0 0 0-2 3 0 0 0 0-1 3 0 0 0 0-2 2 0 1 0 0-2 2 0 0 0 1-2 2 0 0 0 0-1 3 0 0 0 0-2 3 0 0 0 0-2 3 0 0 0 0-1 3 0 0 0 0-2 3 0 0 0 0-1 3 0 0 0 0-2 3 0 0 0 0-1 3 0 0 0 0-2 3 0 0 0 0-1 3 0 0 0 0-2 3 0 0 0 0 0 1-2 4 0 5 0 4 1 5 2 4 2 4 4 3 3 3 5 1 4 1 5 1 4-1 4-2 4-2 4-3 3-3 1-4 1 0 1-3 1-3 0 0 1-2 0 0 2-3 1-3 0 0 2-2 0 0 1-3 1-2 0-1 2-2 1-3 0 0 2-2 0 0 1-3 2-2 0 0 1-3 2-2 1-3 0 0 2-3 0 0 2-2 0 0 1-2 2-3 2-2 0 0 1-3 2-2 2-3 1-1 0 0 2-3 1-2 0 0 2-3 2-2 0 0 1-3 2-2 0 0 2-3 0 0 2-2 1-3 2-2 0 0 2-2 2-3 2-2 0 0 2-2 1-3 2-2 0 0 2-2 2-2 0 0 2-3 0 0 2-2 0 0 2-2 0 0 2-2 2-2 0 0 2-2 0 0 2-3 0 0 2-2 2-2 0 0 2-2 3-2 0 0 2-2 2-2 0 0 2-2 0 0 2-2 0 0 2-2 0 0 3-1 0 0 2-2 0 0 2-2 0 0 2-2 3-2 0 0 2-2 0 0 0 0 3-3 3-4 2-4 1-4 0-5 0-4-2-5-2-4-3-3-3-3-4-2-4-2-5-1z m694 313l-4 1-5 2-3 2-3 4-3 4-2 4-1 4 0 4 1 4 0 4 0 4 0 5 0 4 0 0 0 1 0 3 0 3 0 0 0 3 0 0 0 3 0 3 0 0 0 3 0 0 0 3 0 3 0 3 0 3 0 3-1 3 0 3 0 0 0 3 0 0 0 3-1 3 0 3 0 3-1 2 0 1 0 3 0 0 0 2-1 3 0 3 0 0-1 3 0 3-1 3 0 0 0 3-1 3-1 3 0 0 0 2-1 3 0 0 0 3-1 3 0 0-1 3-1 3 0 0 0 2 0 0-1 3 0 0-1 3 0 0-1 3 0 0-1 3-1 2 0 0 0 3-1 3 0 0-1 3 0 0-1 2 0 1-1 2 0 0-1 3 0 0-1 3-1 2 0 0-1 3-3 5-2 6-2 5-3 5-2 6-3 5-3 5-1 3-2 4-1 4 0 5 1 4 1 5 3 4 3 3 3 3 4 2 5 1 4 1 5-1 4-1 4-2 4-3 3-3 2-3 1-3 1 0 0 0 3-6 0 0 0 0 2-6 1 0 0 0 2-6 0 0 0 0 3-5 0-1 0 0 3-5 0-1 0 0 2-6 0 0 1 0 2-6 0 0 0 0 1-3 0 0 0 0 1-3 0 0 0 0 1-3 0 0 1 0 1-3 0 0 0 0 1-3 0 0 0 0 1-3 0 0 0 0 1-3 0 0 0-1 1-3 0 0 0 0 1-3 0 0 0 0 1-3 0 0 0 0 1-3 0 0 0 0 1-3 0 0 0 0 1-3 0 0 0-1 1-3 0 0 0 0 1-3 0 0 0 0 0-3 0 0 0 0 1-3 0 0 0 0 1-3 0-1 0 0 1-3 0 0 0 0 0-3 0 0 1 0 0-3 0 0 0 0 1-3 0-1 0 0 1-3 0 0 0 0 0-3 0 0 0 0 1-3 0 0 0 0 0-4 0 0 0 0 1-3 0 0 0 0 0-3 0 0 0 0 1-4 0 0 0 0 0-3 0 0 0 0 1-3 0 0 0 0 0-4 0 0 0 0 1-3 0 0 0 0 0-3 0 0 0 0 0-4 0 0 0 0 1-3 0 0 0 0 0-3 0 0 0-1 0-3 0 0 0 0 0-3 0 0 0 0 0-4 0 0 0 0 1-3 0 0 0 0 0-3 0 0 0-1 0-3 0 0 0 0 0-3 0 0 0 0 0-4 0 0 0 0 0-3 0 0 0 0 0-4 0 0 0 0 0-3 0 0 0 0 0-3 0-1 0 0 0-3 0-4 0 0 0 0 0-4 0 0 0-1 0-4 0 0 0 0-1-5 0 0 0 0 0-4 0-5-2-4-2-4-3-4-4-2-4-3-4-1-4-1z m-853 18l-4 1-5 2-3 3-4 3-2 4-2 4-1 4 0 4 0 3 0 0 0 0 0 7 0 0 0 0 0 6 0 0 0 0 0 7 0 0 0 0 1 6 0 0 0 1 0 6 0 0 0 0 1 6 0 0 0 1 1 6 0 0 0 0 1 6 0 0 0 1 0 6 0 0 0 0 1 6 0 0 0 1 1 6 1 0 0 0 1 6 0 0 0 1 1 6 0 0 0 0 1 6 0 0 0 0 2 6 0 1 0 0 1 6 0 0 0 0 2 6 0 0 0 1 2 6 0 0 0 0 1 6 0 0 0 0 2 6 0 0 0 0 2 6 0 1 0 0 2 6 0 0 0 0 2 6 0 0 0 0 2 6 1 0 0 0 2 6 0 0 0 0 2 6 0 0 0 1 3 5 0 1 0 0 2 5 0 1 0 0 3 5 0 1 0 0 2 5 0 1 1 0 2 5 0 1 0 0 3 5 0 0 0 1 1 1 2 4 4 4 3 2 4 2 5 1 4 1 5-1 4-1 4-2 4-3 3-3 2-4 2-5 0-4 0-5-1-4-1-4-1-1-3-5-2-6-3-5-2-6-2-5-2-5-3-6-2-6-2-5-1-6-2-5-2-6-2-6-1-5-2-6-1-6-2-5-1-6-1-6-1-6-1-6-1-5-1-6-1-6-1-6 0-6-1-5 0-6-1-6 0-6 0-6-1-6 0-3 0-4-1-5-3-4-2-3-4-3-4-3-4-1-4-1z m694 334l-4 1-4 2-4 3 0 0-5 3-4 4-5 4-5 3-5 3-4 4-5 3-5 3-5 3-5 4-5 3-6 3-5 2-5 3-5 3-5 3-6 2-5 3-5 2-6 2-5 3-6 2-5 2-6 2-5 2-6 2-5 2-6 1-5 2-6 2-6 1-5 1-5 1-4 2-4 2-4 3-2 3-3 4-1 5-1 4 1 5 1 4 2 4 2 4 3 3 4 3 4 1 5 1 4 1 4-1 5-1 0 0 0 0 6-2 0 0 0 0 6-1 1 0 0 0 6-2 0 0 0 0 6-2 0 0 0 0 6-2 0 0 1 0 5-2 1 0 0 0 6-2 0 0 0 0 6-2 0 0 0 0 6-2 0 0 0 0 6-3 0 0 0 0 6-2 0 0 1 0 5-3 0 0 1 0 5-2 0 0 1 0 5-3 0 0 1 0 5-3 0 0 1 0 5-3 0 0 0 0 6-3 0 0 0 0 6-3 0 0 0 0 6-3 0 0 0 0 5-3 0 0 1 0 5-3 0 0 0 0 6-3 0-1 0 0 5-3 0 0 1 0 5-3 0 0 0-1 5-3 0 0 1 0 5-4 0 0 0 0 5-3 0 0 0 0 6-4 0 0 0 0 5-4 0 0 0 0 5-4 0 0 0 0 5-4 0 0 1 0 4-4 1 0 0 0 0-1 3-3 3-4 2-4 1-4 0-5 0-4-2-4-2-4-3-4-4-3-4-2-4-1-4-1z m-541 2l-4 1-4 3-4 2-3 4-2 4-1 4-1 5 0 4 1 5 2 4 3 4 3 2 1 1 0 1 0 0 5 4 0 0 0 0 5 4 0 0 0 0 3 2 0 0 0 0 2 2 1 0 0 0 2 2 0 0 0 0 3 2 0 0 0 0 2 2 1 0 0 0 2 2 0 0 0 0 3 2 0 0 0 0 3 1 0 1 0 0 2 1 0 0 0 0 3 2 0 0 0 0 3 2 0 0 0 0 3 2 0 0 0 0 2 2 0 0 1 0 2 1 0 0 0 0 3 2 0 0 0 0 3 2 0 0 0 0 3 1 0 0 0 1 3 1 0 0 0 0 3 2 0 0 0 0 2 1 1 0 0 0 2 2 1 0 0 0 2 2 0 0 1 0 2 1 0 0 1 0 2 2 0 0 0 0 3 1 0 0 0 0 3 2 0 0 1 0 2 1 0 0 1 0 2 1 0 1 1 0 2 1 1 0 0 0 3 1 0 0 0 0 3 2 0 0 0 0 3 1 0 0 0 0 3 1 0 0 0 0 3 2 0 0 0 0 3 1 0 0 0 0 3 1 0 0 0 0 3 1 1 0 0 0 3 1 0 0 0 0 3 2 0 0 0 0 3 1 0 0 0 0 3 1 0 0 1 0 3 1 0 0 0 0 3 1 0 0 0 0 3 1 0 0 0 0 3 1 0 0 1 0 3 1 0 0 0 0 3 1 0 0 0 0 3 1 2 0 0 0 0 0 3 1 0 0 0 1 3 1 1 0 0 0 3 1 0 0 0 0 3 1 0 0 0 0 3 1 0 0 0 0 4 0 0 1 0 0 3 0 0 0 0 0 3 1 0 0 0 0 3 1 1 0 0 0 3 1 0 0 0 0 3 1 0 0 0 0 0 0 5 0 4 0 5-1 4-2 4-2 3-4 2-3 2-5 1-4 0-5 0-4-2-4-2-4-3-4-4-2-4-3-3-1 0 0-1 0-3 0-2-1 0 0-3-1 0 0-3-1 0 0-3 0 0 0-3-1-3-1-3-1 0 0-3-1-2-1-3-1-3-1-1 0-1 0-3-1-3-1-3-1 0 0-2-1-3-1-3-1-3 0-3-1 0 0-3-1-3-1-2-1 0 0-3-2-3-1 0 0-3-1 0 0-2-1-3-1 0 0-3-1-3-1-2-2-3-1 0 0-3-1-2-1-3-2-3-1-2-1 0 0-3-2-2-1 0 0-3-1 0 0-3-2 0 0-2-1-2-2-1 0-2-1 0 0-3-2-2-1 0 0-3-2-2-1 0 0-3-2 0 0-2-2 0 0-2-1-3-2 0 0-2-2-2-1-1 0-2-2 0 0-2-2-3-1 0 0-2-2 0 0-2-2 0 0-3-2-4-3-5-4-1-1-4-3-4-1-4-2-5 0z" /></svg>