<svg height="1000" width="1000.0" xmlns="http://www.w3.org/2000/svg"><path d="m429 107c-58 4-70-11-71 52l0 9-172 56c-20 5-20 29 0 30l624 0c19 0 19-25 0-30l-168-55 0-10c0-62-7-48-71-52l-71 0z m-215 204c-14 0-25 12-24 26l50 555c1 12 11 22 24 22l457 0c13 0 23-9 25-22l64-554c2-15-9-27-24-27l-143 0-143 0z m27 49l259 0 259 0-59 505-414 0z m120 73c-1 0-2 0-3 0-16 1-28 15-25 31l44 320c2 15 16 26 31 24 15-2 25-17 22-32l-44-319c-2-13-12-23-25-24z m280 0c-13 0-25 10-27 24l-44 319c-3 15 7 30 22 32 16 2 29-9 31-24l44-320c3-16-9-30-26-31z" /></svg>