<svg height="1000" width="1000.0" xmlns="http://www.w3.org/2000/svg"><path d="m500 48c-9 0-19 4-26 11l-415 415c-14 14-14 38 0 52l415 415c14 14 38 14 52 0l415-415c14-14 14-38 0-52l-415-415c-7-7-17-11-26-11z m0 62l390 390-390 390-390-390 390-390z m-9 192l0 0c0 0-4 1-4 1 0 0-4 2-4 2 0 0-2 3-2 3 0 0-1 4-1 4l0 140-99-99 0 0c0 0-3-2-3-2 0 0-4-1-4-1 0 0-4 1-4 1 0 0-4 2-4 2l-13 13c0 0-2 4-2 4 0 0-1 4-1 4 0 0 1 4 1 4 0 0 2 3 2 3l99 99-140 0 0 0c0 0-4 1-4 1 0 0-3 2-3 2l0 0c0 0-2 4-2 4 0 0-1 4-1 4l0 18c0 0 1 4 1 4 0 0 2 4 2 4 0 0 3 2 3 2 0 0 4 1 4 1l140 0-99 99 0 0c0 0-2 3-2 3 0 0-1 4-1 4 0 0 1 4 1 4 0 0 2 4 2 4l13 13c0 0 4 2 4 2 0 0 4 1 4 1 0 0 4-1 4-1 0 0 3-2 3-2l99-99 0 140 0 0c0 0 1 4 1 4 0 0 2 3 2 3 0 0 4 2 4 2 0 0 4 1 4 1l18 0c0 0 4-1 4-1 0 0 4-2 4-2 0 0 2-3 2-3 0 0 1-4 1-4l0-140 99 99c0 0 3 2 3 2 0 0 4 1 4 1 0 0 4-1 4-1 0 0 4-2 4-2l13-13c0 0 2-4 2-4 0 0 1-4 1-4 0 0-1-4-1-4 0 0-2-4-2-4l-99-98 140 0c0 0 4-1 4-1 0 0 3-2 3-2 0 0 3-4 3-4 0 0 0-4 0-4l0-18c0 0 0-4 0-4 0 0-3-4-3-4 0 0-3-2-3-2 0 0-4-1-4-1l-140 0 99-99c0 0 2-3 2-3 0 0 1-4 1-4 0 0-1-4-1-4 0 0-2-4-2-4l-13-13c0 0-4-2-4-2 0 0-4-1-4-1 0 0-4 1-4 1 0 0-3 2-3 2l-99 99 0-140c0 0-1-4-1-4 0 0-2-3-2-3 0 0-4-3-4-3 0 0-4 0-4 0l-18 0z m-117 48c0 0 0 0 0 0l0 0c0 0 0 0 0 0z" /></svg>