<svg height="1000" width="1000.0" xmlns="http://www.w3.org/2000/svg"><path d="m500 300c-47 131-77 268-124 400 43-43 81-91 124-135 42 45 83 90 125 135-43-133-83-267-125-400z m1 83c23 73 45 146 68 219-22-24-45-49-68-74-19 17-69 82-66 68 24-70 41-143 66-213z m-1-335c-41 1-83 5-121 18-25 13-8 53 18 44 64-17 131-17 196-3 26 3 34-38 9-47-33-8-68-12-102-12z m255 83c-26-3-36 36-13 47 52 38 93 90 121 147 15 22 52 3 43-22-32-67-82-127-143-170-2-1-5-2-8-2z m-519 10c-22 2-35 23-51 36-42 40-76 89-98 142-8 26 30 42 44 19 27-61 69-115 122-157 13-14 2-40-17-40z m264 0c-20 2-48-4-57 18-8 21 15 38 34 32 51-4 103 5 149 25 26 8 42-31 19-44-45-21-95-31-145-31z m-155 39c-23 4-43 21-62 34-34 27-66 58-86 96-10 26 30 44 43 21 30-47 74-83 121-110 16-14 5-41-16-41z m393 59c-25-2-35 33-14 46 37 38 62 87 77 137 14 24 53 6 44-20-17-60-49-115-94-158-4-3-8-4-13-5z m-564 171c-23-2-28 24-30 41-7 55-2 112 16 163 12 24 51 11 46-15-17-53-20-110-10-164 1-13-10-24-22-25z m754 46c-21-1-29 22-25 39 1 68-16 135-47 195-9 25 29 43 43 21 39-72 57-155 52-237-3-10-13-18-23-18z m-853 16c-22-2-30 22-26 39 1 69 18 137 51 197 15 22 52 2 42-23-30-59-46-126-45-193-2-11-11-19-22-20z m756 57c-22-2-27 22-28 39-10 48-34 91-63 130-12 25 26 47 42 24 38-49 65-108 73-170-1-12-11-23-24-23z m-590 160c-22 1-30 32-13 45 40 46 90 82 147 102 26 6 40-33 17-45-52-20-98-53-134-96-4-4-10-6-17-6z m426 77c-23 5-43 21-66 27-34 13-71 15-106 19-25 9-16 49 10 47 62-1 124-18 177-50 17-14 7-44-15-43z m-440 39c-23 1-31 35-11 46 56 45 123 78 194 91 26 2 35-39 9-47-65-14-127-44-179-87-4-2-8-3-13-3z m543 3c-22 2-36 24-55 32-43 29-92 45-141 57-24 12-10 52 17 46 71-15 140-47 196-95 14-15 2-40-17-40z" /></svg>