<svg height="1000" width="1000.0" xmlns="http://www.w3.org/2000/svg"><path d="m460 206c-7 0-15 3-22 8l0 0 0 0c-47 30-209 143-245 167-29 20-49 50-61 87l0 0 0 0c-12 38-10 82-10 120l0 0 0 0c0 28 1 51 8 79 0 0 0 0 0 0 0 0 0 0 0 0 10 42 28 73 54 94 25 21 59 32 97 32 147 1 293 1 439 0l0 0 0 0c12 0 22-3 29-10 7-7 11-18 11-33l0 0c0-15-3-26-11-32-7-6-17-9-29-9l0 0c-55 0-184 0-189 0l0-21 252 0c13 0 23-2 31-6 8-5 14-14 16-25 4-18 1-32-7-41-8-10-21-14-38-14l0 0c-77 0-249 0-254 0l0-19c5 0 271 0 302 0 16 0 28-5 35-13 7-9 10-21 10-37 0-15-4-27-11-34-8-8-20-11-34-11l0 0c-93 0-298 0-302 0l0-19c5 0 159 0 226 0l0 0 0 0c15 0 26-5 34-13 8-9 12-21 12-37l0 0 0 0c0-15-4-27-12-36-8-8-20-13-34-13l0 0c-55 0-141 0-214 1-36 0-70 0-94 0-13 0-23 0-30-1-4 0-7 0-9 0-1 0-2 0-2 0-1 0-1 0-1 0 0 0 0 0-1-1 0 0 1-1 0 0 6-7 22-23 38-39 16-16 32-32 39-40l0 0c15-20 17-48 5-66l0 0c-7-11-15-16-24-17-1 0-2-1-4-1z m0 5c1 0 2 1 3 1 7 1 14 5 21 15l0 0 0 0c10 16 9 41-5 60l0 0 0 0c-6 7-22 23-39 39-16 17-32 32-38 39-1 2-1 5 0 6 1 2 2 3 4 4 0 0 1 0 2 0 0 0 1 0 2 0 2 0 5 0 9 0 7 1 17 1 30 1 24 0 58 0 94 0 73-1 159-1 214-1l0 0 0 0c13 0 23 4 30 12 7 7 11 18 11 33 0 14-4 25-11 33-6 7-16 11-30 11-68 0-228 0-228 0l-3 0 0 29 3 0c0 0 210 0 304 0 14 0 24 3 30 9 7 7 10 17 10 31 0 15-3 26-9 34-6 7-16 11-31 11-31 0-304 0-304 0l-3 0 0 29 3 0c0 0 178 0 256 0l0 0 0 0c16 0 27 4 34 12 7 8 10 20 6 37l0 0 0 0c-2 11-6 17-13 21-7 4-17 6-29 6l-257 0 0 3 0 28 3 0c0 0 135 0 191 0l0 0c12 0 20 3 26 8 6 5 9 14 9 28l0 0 0 0c0 14-4 23-9 29-6 6-15 9-26 9-146 1-292 1-439 0l0 0 0 0c-38 0-69-10-94-31-25-20-43-50-53-91l0 0 0 0c-6-28-7-50-7-78l0 0c0-38-1-82 10-118 12-36 31-65 59-85 36-24 198-137 244-167l0 0c7-4 14-7 20-7z" /></svg>