<svg height="1000" width="1000.0" xmlns="http://www.w3.org/2000/svg"><path d="m500 48c-178-2-349 112-416 276-70 161-34 362 89 487 119 128 314 175 477 115 169-58 294-224 301-403 12-176-92-351-250-428-62-31-132-47-201-47z m0 49c175-3 342 123 388 293 47 159-17 344-155 439-143 105-354 97-489-18-136-109-185-309-115-468 60-147 212-248 371-246z m-16 255c-70 49-140 99-209 148 70 49 139 99 209 148 0-48 0-95 0-143 67 48 135 95 202 143 0-99 0-197 0-296-67 48-135 95-202 143 0-48 0-95 0-143z m-24 47c0 67 0 134 0 201-48-33-95-67-143-100 48-34 95-67 143-101z m202 0c0 67 0 134 0 202-48-34-95-68-143-101 48-34 95-67 143-101z" /></svg>