<svg height="1000" width="1000.0" xmlns="http://www.w3.org/2000/svg"><path d="m500 48c-178-2-349 112-416 276-70 161-34 362 89 487 119 128 314 175 477 115 169-58 294-224 301-403 12-176-92-351-250-428-62-31-132-47-201-47z m0 49c175-3 342 123 388 293 47 159-17 344-155 439-143 105-354 97-489-18-136-109-185-309-115-468 60-147 212-248 371-246z m0 203c-47 131-77 268-124 400 43-43 81-91 124-135 42 45 83 90 125 135-43-133-83-267-125-400z m1 83c23 73 45 146 68 219-22-24-45-49-68-74-19 17-69 82-66 68 24-70 41-143 66-213z" /></svg>